<mxfile host="app.diagrams.net" modified="2024-01-10T13:07:52.597Z" agent="Mozilla/5.0 (Macintosh; Intel Mac OS X 10_15_7) AppleWebKit/537.36 (KHTML, like Gecko) Chrome/120.0.0.0 Safari/537.36" etag="SGkznlvKhNnNNbs25tTE" version="22.1.18" type="github">
  <diagram name="第 1 页" id="v1NyyrEqRL6_lJ_WBqMV">
    <mxGraphModel dx="2389" dy="858" grid="1" gridSize="10" guides="1" tooltips="1" connect="1" arrows="1" fold="1" page="1" pageScale="1" pageWidth="827" pageHeight="1169" math="0" shadow="0">
      <root>
        <mxCell id="0" />
        <mxCell id="1" parent="0" />
        <mxCell id="MBxqvxJGyW1u9tRwk9Et-12" style="edgeStyle=orthogonalEdgeStyle;rounded=0;orthogonalLoop=1;jettySize=auto;html=1;exitX=0.5;exitY=1;exitDx=0;exitDy=0;entryX=0.5;entryY=0;entryDx=0;entryDy=0;" edge="1" parent="1" source="MBxqvxJGyW1u9tRwk9Et-1" target="MBxqvxJGyW1u9tRwk9Et-2">
          <mxGeometry relative="1" as="geometry" />
        </mxCell>
        <mxCell id="MBxqvxJGyW1u9tRwk9Et-1" value="Command has completed successfully&lt;br&gt;Command has completed successfully&lt;br&gt;Targeting domains: node-D3 and nodes: node-127&lt;br&gt;Targeting domains:node-D7 and nodes:node-230&lt;br&gt;Command has been aborted&lt;br&gt;Command has been aborted&lt;br&gt;Command Failed on: node-D4&lt;br&gt;Command Failed on: node-D7&lt;br&gt;Linkerror event interval expired&lt;br&gt;Linkerror event interval expired&lt;br&gt;link errors remain current link errors remain current" style="rounded=0;whiteSpace=wrap;html=1;align=left;spacingLeft=10;" vertex="1" parent="1">
          <mxGeometry x="250" y="110" width="320" height="210" as="geometry" />
        </mxCell>
        <mxCell id="MBxqvxJGyW1u9tRwk9Et-8" style="edgeStyle=orthogonalEdgeStyle;rounded=0;orthogonalLoop=1;jettySize=auto;html=1;exitX=0.5;exitY=1;exitDx=0;exitDy=0;entryX=0.5;entryY=0;entryDx=0;entryDy=0;" edge="1" parent="1" source="MBxqvxJGyW1u9tRwk9Et-2" target="MBxqvxJGyW1u9tRwk9Et-4">
          <mxGeometry relative="1" as="geometry" />
        </mxCell>
        <mxCell id="MBxqvxJGyW1u9tRwk9Et-9" style="edgeStyle=orthogonalEdgeStyle;rounded=0;orthogonalLoop=1;jettySize=auto;html=1;exitX=0.5;exitY=1;exitDx=0;exitDy=0;entryX=0.5;entryY=0;entryDx=0;entryDy=0;" edge="1" parent="1" source="MBxqvxJGyW1u9tRwk9Et-2" target="MBxqvxJGyW1u9tRwk9Et-5">
          <mxGeometry relative="1" as="geometry" />
        </mxCell>
        <mxCell id="MBxqvxJGyW1u9tRwk9Et-10" style="edgeStyle=orthogonalEdgeStyle;rounded=0;orthogonalLoop=1;jettySize=auto;html=1;exitX=0.5;exitY=1;exitDx=0;exitDy=0;entryX=0.5;entryY=0;entryDx=0;entryDy=0;" edge="1" parent="1" source="MBxqvxJGyW1u9tRwk9Et-2" target="MBxqvxJGyW1u9tRwk9Et-6">
          <mxGeometry relative="1" as="geometry" />
        </mxCell>
        <mxCell id="MBxqvxJGyW1u9tRwk9Et-11" style="edgeStyle=orthogonalEdgeStyle;rounded=0;orthogonalLoop=1;jettySize=auto;html=1;exitX=0.5;exitY=1;exitDx=0;exitDy=0;entryX=0.5;entryY=0;entryDx=0;entryDy=0;" edge="1" parent="1" source="MBxqvxJGyW1u9tRwk9Et-2" target="MBxqvxJGyW1u9tRwk9Et-7">
          <mxGeometry relative="1" as="geometry" />
        </mxCell>
        <mxCell id="MBxqvxJGyW1u9tRwk9Et-2" value="Command&lt;br&gt;Targeting&lt;br&gt;Linkerror link" style="ellipse;whiteSpace=wrap;html=1;" vertex="1" parent="1">
          <mxGeometry x="350" y="360" width="120" height="80" as="geometry" />
        </mxCell>
        <mxCell id="MBxqvxJGyW1u9tRwk9Et-4" value="Command has completed successfully&lt;br&gt;Command has completed successfully&lt;br&gt;Command has been aborted&lt;br&gt;Command has been aborted&lt;br&gt;Command Failed on: node-D4&lt;br&gt;Command Failed on: node-D7" style="rounded=0;whiteSpace=wrap;html=1;align=left;spacingLeft=10;" vertex="1" parent="1">
          <mxGeometry x="-76" y="540" width="240" height="110" as="geometry" />
        </mxCell>
        <mxCell id="MBxqvxJGyW1u9tRwk9Et-5" value="Targeting domains: node-D3 and nodes:node-127&lt;br&gt;Targeting domains:node-D7 and nodes:node-230" style="rounded=0;whiteSpace=wrap;html=1;align=left;spacingLeft=10;" vertex="1" parent="1">
          <mxGeometry x="194" y="540" width="290" height="110" as="geometry" />
        </mxCell>
        <mxCell id="MBxqvxJGyW1u9tRwk9Et-6" value="Linkerror event interval expired&lt;br&gt;Linkerror event interval expired" style="rounded=0;whiteSpace=wrap;html=1;align=left;spacingLeft=10;" vertex="1" parent="1">
          <mxGeometry x="514" y="540" width="190" height="110" as="geometry" />
        </mxCell>
        <mxCell id="MBxqvxJGyW1u9tRwk9Et-7" value="link errors remain current &lt;br&gt;link errors remain current" style="rounded=0;whiteSpace=wrap;html=1;align=left;spacingLeft=10;" vertex="1" parent="1">
          <mxGeometry x="744" y="540" width="160" height="110" as="geometry" />
        </mxCell>
        <mxCell id="MBxqvxJGyW1u9tRwk9Et-13" value="" style="endArrow=classic;html=1;rounded=0;entryX=1;entryY=0.5;entryDx=0;entryDy=0;" edge="1" parent="1" target="MBxqvxJGyW1u9tRwk9Et-2">
          <mxGeometry width="50" height="50" relative="1" as="geometry">
            <mxPoint x="710" y="400" as="sourcePoint" />
            <mxPoint x="680" y="340" as="targetPoint" />
          </mxGeometry>
        </mxCell>
        <mxCell id="MBxqvxJGyW1u9tRwk9Et-14" value="Set of unique tokens from positon 1" style="text;html=1;strokeColor=none;fillColor=none;align=center;verticalAlign=middle;whiteSpace=wrap;rounded=0;" vertex="1" parent="1">
          <mxGeometry x="474" y="400" width="230" height="30" as="geometry" />
        </mxCell>
      </root>
    </mxGraphModel>
  </diagram>
</mxfile>
